<svg width="200" height="200" viewBox="0 0 200 200" fill="none" xmlns="http://www.w3.org/2000/svg">
<path d="M200 100C200 155.228 155.228 200 100 200C44.7715 200 0 155.228 0 100C0 44.7715 44.7715 0 100 0C155.228 0 200 44.7715 200 100Z" fill="#202020"/>
<path d="M120.9 40.432C121.156 40.656 121.412 41.136 121.668 41.872C121.956 42.608 122.132 43.424 122.196 44.32C122.292 45.184 122.196 45.984 121.908 46.72C121.62 47.424 121.028 47.904 120.132 48.16C119.716 48.288 118.788 48.4 117.348 48.496C115.908 48.592 114.148 48.672 112.068 48.736C109.988 48.8 107.732 48.864 105.3 48.928C102.9 48.96 100.5 48.976 98.1 48.976C95.7 48.976 93.46 48.96 91.38 48.928C89.3 48.896 87.54 48.848 86.1 48.784C84.66 48.688 83.716 48.592 83.268 48.496C82.052 48.176 81.06 47.36 80.292 46.048C79.524 44.704 79.076 42.832 78.948 40.432C78.948 40.432 79.524 40.448 80.676 40.48C81.828 40.48 83.38 40.496 85.332 40.528C87.284 40.528 89.476 40.544 91.908 40.576C94.34 40.608 96.852 40.64 99.444 40.672C102.068 40.672 104.612 40.672 107.076 40.672C109.572 40.672 111.828 40.672 113.844 40.672C115.892 40.672 117.54 40.656 118.788 40.624C120.036 40.56 120.74 40.496 120.9 40.432Z" fill="white"/>
<path d="M118.5 62.128C118.564 62.544 118.612 63.36 118.644 64.576C118.676 65.792 118.708 67.232 118.74 68.896C118.772 70.56 118.788 72.32 118.788 74.176C118.82 76 118.836 77.776 118.836 79.504C118.836 81.2 118.836 82.688 118.836 83.968C118.836 85.216 118.82 86.096 118.788 86.608C118.756 87.632 118.644 88.864 118.452 90.304C118.292 91.712 118.004 93.12 117.588 94.528C117.172 95.904 116.58 97.088 115.812 98.08C115.012 99.072 114.18 99.792 113.316 100.24C112.484 100.72 111.508 101.088 110.388 101.344C109.396 101.568 108.068 101.728 106.404 101.824C104.74 101.952 102.964 102.016 101.076 102.016C99.22 102.048 97.444 102.016 95.748 101.92C94.052 101.824 92.644 101.68 91.524 101.488C91.236 101.424 90.724 101.296 89.988 101.104C89.284 100.944 88.484 100.624 87.588 100.144C86.692 99.696 85.844 99.008 85.044 98.08C84.276 97.152 83.684 96.016 83.268 94.672C82.852 93.296 82.564 91.888 82.404 90.448C82.244 89.008 82.148 87.728 82.116 86.608C82.084 85.968 82.068 84.992 82.068 83.68C82.068 82.336 82.068 80.832 82.068 79.168C82.1 77.472 82.132 75.728 82.164 73.936C82.196 72.144 82.228 70.432 82.26 68.8C82.324 67.168 82.372 65.76 82.404 64.576C82.436 63.392 82.468 62.576 82.5 62.128H118.5ZM93.444 69.808C92.74 70 92.132 70.352 91.62 70.864C91.108 71.344 90.788 71.968 90.66 72.736C90.628 72.928 90.612 73.248 90.612 73.696C90.612 74.144 90.676 74.576 90.804 74.992C91.188 76.048 92.308 76.672 94.164 76.864C94.548 76.896 95.188 76.928 96.084 76.96C96.98 76.992 97.988 77.024 99.108 77.056C100.26 77.056 101.396 77.056 102.516 77.056C103.668 77.024 104.676 76.992 105.54 76.96C106.404 76.928 106.996 76.896 107.316 76.864C108.148 76.768 108.804 76.528 109.284 76.144C109.796 75.76 110.116 75.376 110.244 74.992C110.372 74.736 110.452 74.368 110.484 73.888C110.516 73.376 110.516 72.992 110.484 72.736C110.452 71.936 110.212 71.328 109.764 70.912C109.316 70.464 108.82 70.144 108.276 69.952C107.732 69.76 107.284 69.648 106.932 69.616C106.612 69.552 106.004 69.52 105.108 69.52C104.212 69.488 103.172 69.472 101.988 69.472C100.804 69.472 99.604 69.488 98.388 69.52C97.204 69.52 96.164 69.552 95.268 69.616C94.372 69.648 93.764 69.712 93.444 69.808ZM109.716 91.168C109.972 90.752 110.18 90.32 110.34 89.872C110.5 89.424 110.58 88.816 110.58 88.048C110.58 87.056 110.26 86.304 109.62 85.792C109.012 85.248 108.164 84.912 107.076 84.784C106.82 84.752 106.244 84.736 105.348 84.736C104.484 84.704 103.46 84.688 102.276 84.688C101.092 84.656 99.908 84.656 98.724 84.688C97.572 84.688 96.564 84.704 95.7 84.736C94.868 84.768 94.34 84.8 94.116 84.832C93.764 84.896 93.3 84.992 92.724 85.12C92.18 85.248 91.668 85.52 91.188 85.936C90.74 86.32 90.484 86.928 90.42 87.76C90.388 88.4 90.436 89.008 90.564 89.584C90.692 90.128 90.852 90.592 91.044 90.976C91.396 91.744 91.924 92.304 92.628 92.656C93.332 92.976 93.956 93.184 94.5 93.28C94.82 93.344 95.364 93.408 96.132 93.472C96.932 93.504 97.828 93.536 98.82 93.568C99.844 93.568 100.868 93.568 101.892 93.568C102.948 93.536 103.876 93.504 104.676 93.472C105.508 93.408 106.116 93.328 106.5 93.232C107.14 93.072 107.732 92.864 108.276 92.608C108.82 92.352 109.3 91.872 109.716 91.168Z" fill="white"/>
<path d="M120.9 112.432C121.156 112.656 121.412 113.136 121.668 113.872C121.956 114.608 122.132 115.424 122.196 116.32C122.292 117.184 122.196 117.984 121.908 118.72C121.62 119.424 121.028 119.904 120.132 120.16C119.716 120.288 118.788 120.4 117.348 120.496C115.908 120.592 114.148 120.672 112.068 120.736C109.988 120.8 107.732 120.864 105.3 120.928C102.9 120.96 100.5 120.976 98.1 120.976C95.7 120.976 93.46 120.96 91.38 120.928C89.3 120.896 87.54 120.848 86.1 120.784C84.66 120.688 83.716 120.592 83.268 120.496C82.052 120.176 81.06 119.36 80.292 118.048C79.524 116.704 79.076 114.832 78.948 112.432C78.948 112.432 79.524 112.448 80.676 112.48C81.828 112.48 83.38 112.496 85.332 112.528C87.284 112.528 89.476 112.544 91.908 112.576C94.34 112.608 96.852 112.64 99.444 112.672C102.068 112.672 104.612 112.672 107.076 112.672C109.572 112.672 111.828 112.672 113.844 112.672C115.892 112.672 117.54 112.656 118.788 112.624C120.036 112.56 120.74 112.496 120.9 112.432Z" fill="white"/>
<path d="M121.284 147.616C121.86 148.128 122.26 148.656 122.484 149.2C122.74 149.744 122.852 150.288 122.82 150.832C122.788 151.792 122.404 152.64 121.668 153.376C120.964 154.112 120.116 154.528 119.124 154.624C118.612 154.688 118.276 154.848 118.116 155.104C117.956 155.36 117.956 155.6 118.116 155.824C118.788 156.688 119.14 157.6 119.172 158.56C119.172 158.88 119.156 159.184 119.124 159.472C119.124 159.76 119.06 160.032 118.932 160.288C118.804 160.576 118.804 160.928 118.932 161.344C119.06 161.728 119.188 162.048 119.316 162.304C119.668 163.072 119.908 163.76 120.036 164.368C120.196 164.976 120.244 165.504 120.18 165.952C120.116 166.528 119.924 167.008 119.604 167.392C119.284 167.744 118.9 168.016 118.452 168.208C117.684 168.528 116.484 168.944 114.852 169.456C113.22 169.968 111.332 170.528 109.188 171.136C107.076 171.712 104.868 172.288 102.564 172.864C100.292 173.44 98.084 173.952 95.94 174.4C93.828 174.88 91.956 175.248 90.324 175.504C88.692 175.76 87.476 175.872 86.676 175.84C85.268 175.744 84.084 175.456 83.124 174.976C82.164 174.496 81.428 173.952 80.916 173.344C80.404 172.768 80.1 172.304 80.004 171.952C80.004 171.952 80.356 171.84 81.06 171.616C81.764 171.392 82.676 171.104 83.796 170.752C84.948 170.4 86.164 170.032 87.444 169.648C88.724 169.232 89.956 168.832 91.14 168.448C92.356 168.064 93.38 167.744 94.212 167.488C95.044 167.232 95.556 167.072 95.748 167.008C96.292 166.784 96.66 166.496 96.852 166.144C97.044 165.76 97.028 165.504 96.804 165.376C96.26 165.056 95.828 164.784 95.508 164.56C95.22 164.336 95.076 164.224 95.076 164.224C95.076 164.224 95.252 163.968 95.604 163.456C95.988 162.912 96.34 162.24 96.66 161.44C96.756 161.152 96.9 160.56 97.092 159.664C97.284 158.736 97.3 157.824 97.14 156.928C97.044 156.32 96.804 155.856 96.42 155.536C96.068 155.216 95.668 155.008 95.22 154.912C94.772 154.784 94.388 154.72 94.068 154.72C91.796 154.72 89.78 154.72 88.02 154.72C86.292 154.72 85.092 154.704 84.42 154.672C83.268 154.64 82.292 154.384 81.492 153.904C80.692 153.392 80.052 152.768 79.572 152.032C79.124 151.264 78.804 150.48 78.612 149.68C78.452 148.88 78.388 148.176 78.42 147.568L82.836 147.52C83.38 147.52 83.892 147.296 84.372 146.848C84.852 146.368 85.092 145.904 85.092 145.456V134.704C85.092 134.704 85.444 134.72 86.148 134.752C86.884 134.784 87.732 134.88 88.692 135.04C89.684 135.2 90.548 135.504 91.284 135.952C91.732 136.176 92.084 136.464 92.34 136.816C92.628 137.168 92.788 137.584 92.82 138.064C92.884 138.992 92.884 140.16 92.82 141.568C92.788 142.944 92.772 144.224 92.772 145.408C92.772 145.92 92.932 146.4 93.252 146.848C93.572 147.264 94.068 147.472 94.74 147.472C95.444 147.472 95.924 147.184 96.18 146.608C96.436 146.032 96.564 145.424 96.564 144.784L96.708 131.584C98.212 131.488 99.604 131.52 100.884 131.68C102.196 131.84 103.22 132.128 103.956 132.544C104.788 133.024 105.204 133.568 105.204 134.176C105.236 135.168 105.428 136.016 105.78 136.72C106.132 137.424 106.66 137.808 107.364 137.872C107.652 137.904 108.164 137.936 108.9 137.968C109.668 137.968 110.516 137.968 111.444 137.968C112.372 137.968 113.268 137.968 114.132 137.968C114.996 137.936 115.716 137.92 116.292 137.92C116.868 137.92 117.156 137.92 117.156 137.92C117.668 138.368 118.036 138.832 118.26 139.312C118.484 139.76 118.612 140.208 118.644 140.656C118.708 141.36 118.532 142 118.116 142.576C117.732 143.152 117.22 143.568 116.58 143.824C115.62 144.176 114.532 144.384 113.316 144.448C112.1 144.48 110.916 144.48 109.764 144.448C108.644 144.416 107.716 144.48 106.98 144.64C106.5 144.736 106.164 144.992 105.972 145.408C105.812 145.824 105.844 146.24 106.068 146.656C106.324 147.072 106.852 147.344 107.652 147.472C107.972 147.504 108.644 147.536 109.668 147.568C110.692 147.6 111.844 147.616 113.124 147.616C114.436 147.616 115.716 147.616 116.964 147.616C118.212 147.616 119.236 147.616 120.036 147.616C120.868 147.616 121.284 147.616 121.284 147.616ZM109.812 162.592C110.26 162.272 110.468 161.984 110.436 161.728C110.436 161.44 110.372 161.184 110.244 160.96C109.572 159.936 109.38 158.784 109.668 157.504C109.892 156.768 110.148 156.208 110.436 155.824C110.596 155.568 110.564 155.328 110.34 155.104C110.148 154.848 109.876 154.72 109.524 154.72H107.7C107.444 154.72 107.124 154.816 106.74 155.008C106.356 155.2 106.02 155.504 105.732 155.92C105.476 156.304 105.364 156.816 105.396 157.456C105.428 157.68 105.428 158.112 105.396 158.752C105.364 159.392 105.316 160.048 105.252 160.72C105.22 161.392 105.172 161.888 105.108 162.208C105.044 162.688 105.124 163.056 105.348 163.312C105.604 163.568 105.908 163.68 106.26 163.648C106.548 163.616 106.932 163.552 107.412 163.456C107.924 163.328 108.404 163.184 108.852 163.024C109.3 162.864 109.62 162.72 109.812 162.592ZM92.436 160.288C92.468 161.76 92.036 162.896 91.14 163.696C90.276 164.496 89.108 164.832 87.636 164.704C86.164 164.576 84.996 164.016 84.132 163.024C83.268 162 82.996 160.752 83.316 159.28C83.572 158.096 84.148 157.248 85.044 156.736C85.94 156.192 86.932 155.904 88.02 155.872C88.756 155.84 89.444 156.048 90.084 156.496C90.756 156.912 91.316 157.456 91.764 158.128C92.212 158.8 92.436 159.52 92.436 160.288Z" fill="white"/>
</svg>
